{"version":"1.0","name":"Jetpac Theme","author":"PyPilot","tempo":140,"ticksPerBeat":24,"totalTicks":768,"notes":[{"id":"n1","note":72,"start":0,"duration":24,"velocity":12,"channel":0},{"id":"n2","note":76,"start":24,"duration":24,"velocity":12,"channel":0},{"id":"n3","note":79,"start":48,"duration":24,"velocity":12,"channel":0},{"id":"n4","note":84,"start":72,"duration":48,"velocity":14,"channel":0},{"id":"n5","note":72,"start":144,"duration":24,"velocity":12,"channel":0},{"id":"n6","note":76,"start":168,"duration":24,"velocity":12,"channel":0},{"id":"n7","note":79,"start":192,"duration":24,"velocity":12,"channel":0},{"id":"n8","note":84,"start":216,"duration":48,"velocity":14,"channel":0},{"id":"n9","note":60,"start":0,"duration":96,"velocity":8,"channel":1},{"id":"n10","note":64,"start":96,"duration":96,"velocity":8,"channel":1},{"id":"n11","note":60,"start":192,"duration":96,"velocity":8,"channel":1},{"id":"n12","note":67,"start":288,"duration":48,"velocity":10,"channel":2},{"id":"n13","note":72,"start":336,"duration":48,"velocity":10,"channel":2},{"id":"n14","note":76,"start":384,"duration":48,"velocity":12,"channel":0},{"id":"n15","note":79,"start":432,"duration":48,"velocity":12,"channel":0},{"id":"n16","note":84,"start":480,"duration":96,"velocity":14,"channel":0},{"id":"n17","note":72,"start":576,"duration":48,"velocity":12,"channel":0},{"id":"n18","note":76,"start":624,"duration":48,"velocity":12,"channel":0},{"id":"n19","note":79,"start":672,"duration":48,"velocity":12,"channel":0},{"id":"n20","note":84,"start":720,"duration":48,"velocity":14,"channel":0}],"noise":[{"id":"perc1","start":0,"duration":12,"period":8,"channels":4},{"id":"perc2","start":96,"duration":12,"period":8,"channels":4},{"id":"perc3","start":192,"duration":12,"period":8,"channels":4},{"id":"perc4","start":288,"duration":12,"period":8,"channels":4},{"id":"perc5","start":384,"duration":12,"period":8,"channels":4},{"id":"perc6","start":480,"duration":12,"period":8,"channels":4},{"id":"perc7","start":576,"duration":12,"period":8,"channels":4},{"id":"perc8","start":672,"duration":12,"period":8,"channels":4}],"loopStart":0,"loopEnd":768}